<svg xmlns="http://www.w3.org/2000/svg" width="40.33" height="40.315" viewBox="0 0 40.33 40.315">
  <g id="Arrow_Right" transform="translate(2540.347 -4267.829)">
    <path id="Path_673" data-name="Path 673" d="M-2519.992,4267.83a20.245,20.245,0,0,0-20.354,20.033,20.191,20.191,0,0,0,20.172,20.281,20.184,20.184,0,0,0,20.156-19.942A20.237,20.237,0,0,0-2519.992,4267.83Z" fill="#e4e4e4"/>
    <path id="Path_674" data-name="Path 674" d="M-2367.3,4373.9a1.207,1.207,0,0,0,.392,1.357q4.434,4.425,8.868,8.853c.24.239.24.366,0,.6q-4.406,4.381-8.791,8.781a2.708,2.708,0,0,0-.348.392,1.08,1.08,0,0,0-.046,1.194,1.1,1.1,0,0,0,1,.6,1.443,1.443,0,0,0,1.085-.556q4.826-4.83,9.654-9.655a2.985,2.985,0,0,0,.326-.368,1.122,1.122,0,0,0,.125-1.163,2.02,2.02,0,0,0-.476-.6q-4.8-4.8-9.606-9.6c-.1-.1-.2-.2-.306-.29a1.052,1.052,0,0,0-.77-.292A1.129,1.129,0,0,0-2367.3,4373.9Z" transform="translate(-157.33 -96.429)" fill="#052d49"/>
  </g>
</svg>
