<svg xmlns="http://www.w3.org/2000/svg" width="33" height="33" viewBox="0 0 33 33">
  <g id="Back" transform="translate(-130 -269)">
    <circle id="Ellipse_123" data-name="Ellipse 123" cx="16.5" cy="16.5" r="16.5" transform="translate(130 269)" fill="#0060a4"/>
    <g id="Group_1847" data-name="Group 1847" transform="translate(-2722.009 3902.42) rotate(180)">
      <path id="Path_849" data-name="Path 849" d="M-2863.752,3617.978a.48.48,0,0,0-.275-.042h-11.565a1.752,1.752,0,0,1-.362-.026.809.809,0,0,1-.645-.779.808.808,0,0,1,.646-.778,1.769,1.769,0,0,1,.362-.026h11.565a.45.45,0,0,0,.232-.021c-.013-.076-.077-.109-.122-.154q-1.95-1.953-3.9-3.9a.8.8,0,0,1-.235-.878.793.793,0,0,1,1.256-.347c.052.042.1.091.145.138l5.306,5.306a.82.82,0,0,1,0,1.325q-2.665,2.666-5.33,5.333a.827.827,0,0,1-.84.263.791.791,0,0,1-.349-1.324c.307-.319.625-.628.938-.941l3.014-3.013C-2863.87,3618.069-2863.82,3618.034-2863.752,3617.978Z" transform="translate(0 0)" fill="#fff"/>
    </g>
  </g>
</svg>
