<svg xmlns="http://www.w3.org/2000/svg" width="17.725" height="23.328" viewBox="0 0 17.725 23.328">
  <g id="Closing_Figures" data-name="Closing Figures" transform="translate(4106.571 -1245.726)">
    <path id="Path_844" data-name="Path 844" d="M-4089.1,1247.463a1.374,1.374,0,0,0-1.479-1.487h-14.236a1.375,1.375,0,0,0-1.493,1.5q0,4.961,0,9.921c0,3.263.022,6.525-.013,9.787a1.508,1.508,0,0,0,1.613,1.624c2.795-.036,5.591-.017,8.386-.007a.98.98,0,0,0,.764-.313q3.092-3.121,6.2-6.223a.818.818,0,0,0,.261-.627Q-4089.105,1254.548-4089.1,1247.463Zm-6.5,19.529v-.578c0-1.283,0-2.566,0-3.849,0-.21.054-.281.272-.279,1.438.009,2.877,0,4.316,0h.133Zm5.217-5.692h-5.427c-.067,0-.134,0-.2,0-.407.026-.554.18-.554.588q0,2.38,0,4.76c0,.3-.011.609,0,.912.01.2-.055.266-.262.266-2.083-.007-4.167,0-6.25,0-.579,0-1.157,0-1.735,0-.385,0-.536-.156-.536-.544q0-4.96,0-9.921,0-4.916,0-9.832c0-.445.142-.587.584-.587h14.08c.479,0,.613.132.613.6V1261C-4090.065,1261.3-4090.065,1261.3-4090.38,1261.3Z" fill="#052d49" stroke="#052d49" stroke-width="0.5"/>
    <path id="Path_845" data-name="Path 845" d="M-4043.543,1432.461c-.323,0-.323,0-.322.668,0,.323,0,.324.155.324h4.126c.413,0,.826-.006,1.239,0,.1,0,.144-.072.135-.283-.006-.125,0-.252,0-.378,0-.335,0-.336-.16-.336Z" transform="translate(-59.676 -178.186)" fill="#052d49"/>
    <path id="Path_846" data-name="Path 846" d="M-4032.31,1526.2c0-.322,0-.323-.318-.323h-7.75c-1.082,0-2.164.005-3.246,0-.216,0-.291.074-.276.283.012.17,0,.341,0,.511,0,.117.052.175.174.176.794,0,1.587.008,2.381.009s1.6,0,2.4,0c.661,0,1.322.008,1.983.008.8,0,1.6-.009,2.4-.009.661,0,1.322.008,1.983.013.177,0,.278-.06.261-.26C-4032.318,1526.471-4032.309,1526.337-4032.31,1526.2Z" transform="translate(-59.642 -267.446)" fill="#052d49"/>
    <path id="Path_847" data-name="Path 847" d="M-4039.239,1619.4c0-.322,0-.322-.128-.322h-3.117c-.436,0-.871.005-1.306,0-.087,0-.117.074-.111.283,0,.17,0,.341,0,.511,0,.117.021.175.07.176.319,0,.639.008.958.009s.645,0,.967,0c.266,0,.532.008.8.008.322,0,.645-.01.967-.009.266,0,.532.008.8.014.071,0,.112-.06.1-.261C-4039.242,1619.672-4039.239,1619.537-4039.239,1619.4Z" transform="translate(-59.642 -356.499)" fill="#052d49"/>
    <path id="Path_848" data-name="Path 848" d="M-4043.706,1340.942h5.115c.319,0,.319,0,.318-.667,0-.293,0-.3-.144-.3h-5.146c-.3,0-.3,0-.3.633C-4043.865,1340.942-4043.865,1340.942-4043.706,1340.942Z" transform="translate(-59.676 -89.819)" fill="#052d49"/>
    <path id="Path_849" data-name="Path 849" d="M-3873.31,1335.557l-.044-.012a.49.49,0,0,1-.129-.044.132.132,0,0,1-.006-.054c.013-.481.008-.958,0-1.407a.69.69,0,0,1,.277.41.551.551,0,0,0,.258.351.433.433,0,0,0,.2.047.946.946,0,0,0,.3-.062.808.808,0,0,1,.131-.036.383.383,0,0,0,.3-.17.486.486,0,0,0-.009-.434c-.006-.018-.013-.034-.018-.05a1.69,1.69,0,0,0-1.228-1.167l-.066-.017c-.141-.035-.156-.045-.175-.118a.413.413,0,0,0-.418-.289h0a.387.387,0,0,0-.391.276c-.022.088-.042.1-.195.131-.034.007-.068.015-.1.024a1.734,1.734,0,0,0-1.326,1.573,1.535,1.535,0,0,0,.982,1.712c.547.169.706.443.607,1.047a.576.576,0,0,0,0,.112c0,.008,0,.016,0,.024h0c0,.079,0,.158,0,.238,0,.174,0,.354,0,.534a.926.926,0,0,1-.463-.7.492.492,0,0,0-.187-.349.412.412,0,0,0-.246-.073,1.059,1.059,0,0,0-.2.024c-.037.007-.071.014-.1.016a.523.523,0,0,0-.388.176.531.531,0,0,0-.091.423,1.823,1.823,0,0,0,1.445,1.561c.245.056.25.105.231.253a.486.486,0,0,0,.1.4.433.433,0,0,0,.339.134h.009a.429.429,0,0,0,.333-.136.507.507,0,0,0,.093-.407c-.016-.13-.021-.174.217-.231a1.875,1.875,0,0,0,1.179-.865,1.994,1.994,0,0,0,.218-1.518A1.819,1.819,0,0,0-3873.31,1335.557Zm-1.056-1.547c-.009.151-.007.3,0,.447,0,.063,0,.126,0,.189v.136c0,.157,0,.318,0,.479a.629.629,0,0,1-.377-.542.664.664,0,0,1,.354-.7l.028-.015S-3874.366,1334.008-3874.366,1334.01Zm.88,4.176c0-.166,0-.333,0-.495,0-.076,0-.151,0-.227s0-.152,0-.227c0-.165,0-.336,0-.505a.658.658,0,0,1,.447.676A.821.821,0,0,1-3873.486,1338.186Z" transform="translate(-220.027 -82.677)" fill="#052d49"/>
  </g>
</svg>
