<svg xmlns="http://www.w3.org/2000/svg" width="47.016" height="47" viewBox="0 0 47.016 47">
  <g id="Create_New" data-name="Create New" transform="translate(-188 -351)">
    <g id="Group_1217" data-name="Group 1217" transform="translate(-2954.067 -4814.947)">
      <path id="Path_697" data-name="Path 697" d="M3165.584,5212.946a23.5,23.5,0,1,1,23.5-23.248A23.538,23.538,0,0,1,3165.584,5212.946Zm20.488-23.476a20.487,20.487,0,1,0-20.615,20.458A20.459,20.459,0,0,0,3186.071,5189.471Z" transform="translate(0 0)" fill="#e65752"/>
      <g id="Group_1212" data-name="Group 1212" transform="translate(3152.225 5175.22)">
        <path id="Path_698" data-name="Path 698" d="M3279.445,5281.632a1.222,1.222,0,0,1-.81.132c-3.428,0-6.857.02-10.285-.012-.641,0-.826.168-.82.816.031,3.453,0,6.9.029,10.358.006.656-.209.825-.837.817-1.824-.02-1.824,0-1.823-1.789,0-3.113-.015-6.225.016-9.337.007-.652-.149-.874-.842-.867-3.428.037-6.857,0-10.285.031-.668.006-.88-.184-.867-.861.033-1.8,0-1.8,1.811-1.8,3.136,0,6.274-.016,9.41.014.615.006.777-.184.772-.784-.026-3.453.005-6.906-.028-10.359-.007-.688.219-.863.874-.854,1.778.028,1.781,0,1.783,1.752q0,4.594,0,9.191c0,1.04,0,1.04,1,1.04h9.994c.971,0,.971,0,.97.946,0,.389,0,.777-.006,1.167A2.867,2.867,0,0,1,3279.445,5281.632Z" transform="translate(-3252.92 -5267.137)" fill="#e65752"/>
      </g>
    </g>
  </g>
</svg>
