<svg xmlns="http://www.w3.org/2000/svg" width="23.781" height="25.275" viewBox="0 0 23.781 25.275">
  <g id="Date" transform="translate(-4613.004 -1035.193)">
    <path id="Path_861" data-name="Path 861" d="M4624.906,1060.453c-3.086,0-6.174-.03-9.26.015a2.78,2.78,0,0,1-2.641-2.65q.054-8.654,0-17.309a2.762,2.762,0,0,1,2.649-2.643c1.409.044,2.82.005,4.23.014.23,0,.32-.058.312-.3-.017-.515-.008-1.032,0-1.548a.79.79,0,1,1,1.577,0c0,.533.007,1.066,0,1.6,0,.19.061.255.252.254q2.876-.008,5.752,0c.2,0,.27-.067.266-.268-.011-.524-.007-1.049,0-1.573a.791.791,0,1,1,1.578.006c0,.516.012,1.032,0,1.547-.007.234.077.29.3.289,1.436-.008,2.872-.005,4.308,0a2.627,2.627,0,0,1,2.569,2.57q0,8.745,0,17.49a2.625,2.625,0,0,1-2.514,2.517Q4629.588,1060.458,4624.906,1060.453Zm-.006-15.014h-9.929c-.372,0-.372,0-.372.36q0,5.932,0,11.864c0,1,.215,1.211,1.212,1.211h17.022c.481,0,.963.007,1.444,0a.827.827,0,0,0,.927-.927c0-.052,0-.1,0-.155q0-6,0-11.993c0-.357,0-.358-.35-.358Zm-.013-1.579h4.978c1.676,0,3.353-.005,5.029.005.251,0,.329-.077.317-.323-.019-.377,0-.756,0-1.135,0-.662.009-1.324,0-1.986s-.3-.96-.919-.964c-1.478-.011-2.957,0-4.436-.006-.183,0-.24.07-.236.244q.012.619,0,1.238a.787.787,0,1,1-1.575-.012c-.005-.4-.008-.808,0-1.212,0-.184-.05-.259-.248-.259q-2.888.008-5.777,0c-.2,0-.249.08-.245.262.009.4.006.791,0,1.186a.789.789,0,1,1-1.577.007c-.005-.378-.015-.757,0-1.135.012-.246-.064-.325-.316-.323-1.4.011-2.8,0-4.2.008a2.5,2.5,0,0,0-.485.053.66.66,0,0,0-.539.527,2,2,0,0,0-.055.485c0,1.006.011,2.012-.005,3.017,0,.271.088.327.34.327Q4619.91,1043.854,4624.887,1043.861Z" fill="#e65752"/>
    <path id="Path_862" data-name="Path 862" d="M4738.486,1276.042c-.326,0-.652-.006-.979,0-.179,0-.242-.069-.239-.244.007-.472.005-.944,0-1.416,0-.161.057-.233.225-.232q1,.007,2.008,0c.167,0,.227.068.226.231,0,.472-.008.944,0,1.416,0,.2-.085.25-.265.245C4739.138,1276.036,4738.812,1276.042,4738.486,1276.042Z" transform="translate(-117.853 -226.63)" fill="#e65752"/>
    <path id="Path_863" data-name="Path 863" d="M4820.486,1276.042c-.326,0-.652-.006-.978,0-.179,0-.242-.07-.239-.245.007-.472.005-.944,0-1.416,0-.162.058-.233.225-.232q1,.007,2.008,0c.167,0,.227.068.225.231,0,.472-.007.944,0,1.416,0,.2-.085.25-.264.245C4821.139,1276.035,4820.812,1276.041,4820.486,1276.042Z" transform="translate(-195.622 -226.629)" fill="#e65752"/>
    <path id="Path_864" data-name="Path 864" d="M4903.47,1276.051c-.317,0-.635-.006-.952,0-.181.005-.266-.051-.263-.248.009-.472.007-.944,0-1.416,0-.164.062-.23.227-.229.669,0,1.338,0,2.007,0,.146,0,.224.048.223.207,0,.489,0,.978,0,1.467,0,.175-.086.218-.241.216C4904.139,1276.048,4903.8,1276.051,4903.47,1276.051Z" transform="translate(-274.326 -226.639)" fill="#e65752"/>
    <path id="Path_865" data-name="Path 865" d="M4738.508,1347.027c-.334,0-.669,0-1,0-.15,0-.219-.056-.217-.212,0-.472,0-.944,0-1.416,0-.135.046-.209.193-.208q1.03,0,2.059,0c.139,0,.2.056.2.2,0,.48,0,.961,0,1.441,0,.167-.093.2-.232.2C4739.177,1347.025,4738.843,1347.027,4738.508,1347.027Z" transform="translate(-117.871 -294.004)" fill="#e65752"/>
    <path id="Path_866" data-name="Path 866" d="M4820.5,1346.986c-.335,0-.669,0-1,0-.167,0-.229-.067-.227-.23.005-.455.006-.909,0-1.364,0-.173.057-.247.238-.245q.991.01,1.981,0c.179,0,.243.068.24.244-.007.446-.008.892,0,1.338,0,.185-.059.265-.251.259C4821.152,1346.979,4820.826,1346.986,4820.5,1346.986Z" transform="translate(-195.623 -293.963)" fill="#e65752"/>
    <path id="Path_867" data-name="Path 867" d="M4903.494,1347.012c-.327,0-.652,0-.978,0-.166,0-.256-.044-.253-.23.007-.463.005-.927,0-1.39,0-.15.056-.219.211-.218q1.016.005,2.033,0c.155,0,.214.065.212.217,0,.463-.006.927,0,1.39,0,.186-.083.236-.251.232C4904.146,1347.008,4903.819,1347.012,4903.494,1347.012Z" transform="translate(-274.334 -293.989)" fill="#e65752"/>
    <path id="Path_868" data-name="Path 868" d="M4738.507,1416.139c.326,0,.652.005.978,0,.173,0,.249.057.246.238q-.012.682,0,1.364c0,.181-.071.24-.245.238q-.991-.008-1.982,0c-.161,0-.234-.056-.232-.225q.008-.695,0-1.39c0-.167.069-.228.231-.225C4737.838,1416.143,4738.173,1416.139,4738.507,1416.139Z" transform="translate(-117.856 -361.288)" fill="#e65752"/>
    <path id="Path_869" data-name="Path 869" d="M4820.5,1418.009c-.326,0-.652,0-.978,0-.169,0-.252-.05-.25-.234.008-.463.005-.927,0-1.39,0-.152.06-.216.214-.215.678,0,1.355,0,2.034,0,.134,0,.208.047.208.194,0,.48,0,.961,0,1.441,0,.162-.084.2-.227.2C4821.165,1418.006,4820.831,1418.009,4820.5,1418.009Z" transform="translate(-195.622 -361.322)" fill="#e65752"/>
    <path id="Path_870" data-name="Path 870" d="M4903.494,1417.987c-.326,0-.652,0-.978,0-.162,0-.234-.057-.232-.224q.008-.695,0-1.39c0-.167.069-.226.231-.225q.991.006,1.982,0c.173,0,.249.057.246.238q-.011.682,0,1.364c0,.18-.073.242-.246.239C4904.163,1417.983,4903.828,1417.988,4903.494,1417.987Z" transform="translate(-274.354 -361.301)" fill="#e65752"/>
  </g>
</svg>
