<svg xmlns="http://www.w3.org/2000/svg" width="19.867" height="22.691" viewBox="0 0 19.867 22.691">
  <g id="Delete" transform="translate(-4184.577 -6054.111)">
    <path id="Path_894" data-name="Path 894" d="M4194.483,6076.8h-6.991a1.412,1.412,0,0,1-1.5-1.5q0-6.881,0-13.761c0-.222-.043-.31-.282-.354a1.385,1.385,0,0,1-1.139-1.4c0-.487,0-.974,0-1.46a1.408,1.408,0,0,1,1.388-1.381c1.334,0,2.67-.005,4,0,.21,0,.285-.056.276-.272-.016-.39-.007-.782,0-1.172a1.4,1.4,0,0,1,1.4-1.391q2.865,0,5.73,0a1.405,1.405,0,0,1,1.4,1.4c0,.383.013.767,0,1.15-.01.22.051.291.281.29,1.3-.011,2.6.02,3.894-.014a1.471,1.471,0,0,1,1.5,1.506c-.027.448,0,.9-.006,1.349a1.391,1.391,0,0,1-1.184,1.412c-.218.034-.234.129-.233.3q0,5.388,0,10.774,0,1.538,0,3.076a1.406,1.406,0,0,1-1.455,1.447Zm.022-1.447q3.406,0,6.814,0c.187,0,.258-.042.258-.245q-.008-6.825,0-13.651c0-.2-.074-.246-.259-.243-.76.008-1.52.011-2.279,0-.215,0-.273.063-.272.275.007,1.748,0,3.5,0,5.243q0,2.533,0,5.067a.708.708,0,0,1-.812.746.719.719,0,0,1-.634-.793v-10.244c0-.289,0-.29-.294-.29-.509,0-1.019.009-1.526,0-.209-.005-.278.051-.277.27.008,2.043,0,4.086,0,6.129q0,2.09,0,4.182a.709.709,0,0,1-.807.751.717.717,0,0,1-.639-.789q0-5.133,0-10.266c0-.209-.054-.284-.271-.277-.516.014-1.032.017-1.548,0-.23-.007-.284.067-.283.288.008,2.035,0,4.071,0,6.106q0,2.1,0,4.2a.705.705,0,0,1-.8.734.715.715,0,0,1-.644-.784v-10.222c0-.321,0-.321-.329-.322h-2.146c-.326,0-.327,0-.327.323v13.519c0,.288,0,.289.293.289Zm.006-15.579h3.539c1.563,0,3.125,0,4.688,0,.189,0,.266-.047.255-.248-.015-.279,0-.56,0-.84,0-.3,0-.3-.3-.3h-8.006q-4.191,0-8.382,0c-.208,0-.291.051-.277.271a6.506,6.506,0,0,1,0,.839c-.015.227.063.285.286.284Q4190.408,6059.771,4194.511,6059.777Zm0-2.832c.847,0,1.694-.005,2.542,0,.2,0,.293-.045.28-.268-.018-.3-.011-.6,0-.905.005-.161-.047-.22-.214-.22q-2.607.007-5.214,0c-.169,0-.217.063-.212.221.01.3.014.6,0,.906-.009.2.05.268.259.266C4192.8,6056.938,4193.653,6056.944,4194.507,6056.945Z" fill="#052d49"/>
  </g>
</svg>
