<svg xmlns="http://www.w3.org/2000/svg" width="22.01" height="24.557" viewBox="0 0 22.01 24.557">
  <g id="Documents" transform="translate(-1527.888 -2753.645)">
    <path id="Path_834" data-name="Path 834" d="M1806.758,2800.585c.709.009,1.431.007,2.13,0h.344l-3.048-3.569q0,.2,0,.4c0,.86-.006,1.749,0,2.623A.541.541,0,0,0,1806.758,2800.585Z" transform="translate(-263.83 -41.122)" fill="none"/>
    <path id="Path_835" data-name="Path 835" d="M1794.026,3065.264a3.637,3.637,0,1,0,3.681,3.614A3.618,3.618,0,0,0,1794.026,3065.264Zm2.652,3.866,0,.01-.018.107-.089.064a.422.422,0,0,1-.277.072h-.358c-.445,0-.9,0-1.357,0,0,.27,0,.542,0,.806,0,.3,0,.6,0,.9a.409.409,0,0,1-.107.3.4.4,0,0,1-.294.106h-.022a.578.578,0,0,1-.453-.12.589.589,0,0,1-.113-.456q0-.223,0-.446c0-.359,0-.728,0-1.094-.281,0-.565,0-.841,0s-.574,0-.86,0a.375.375,0,0,1-.415-.417v-.015c0-.195.006-.335.125-.448a.6.6,0,0,1,.454-.109h.431c.362,0,.736,0,1.106,0q0-.369,0-.739c0-.316,0-.644,0-.965a.418.418,0,0,1,.108-.307.406.406,0,0,1,.31-.106h.014a.566.566,0,0,1,.445.12.578.578,0,0,1,.112.448q0,.726,0,1.452v.095h1.681a.425.425,0,0,1,.332.095.416.416,0,0,1,.1.332v.051c0,.054,0,.108,0,.161A.54.54,0,0,1,1796.678,3069.13Z" transform="translate(-248.882 -295.428)" fill="none"/>
    <path id="Path_836" data-name="Path 836" d="M1536.332,2775.265c-1.1,0-5.32,0-6.421,0-.448,0-.656-.221-.656-.695q0-3.486,0-6.973v-2.456q0-4.649,0-9.3c0-.664.165-.826.838-.826h10.89c0,.035,0,.076,0,.115q0,.672,0,1.343,0,1.186,0,2.372a1.908,1.908,0,0,0,1.992,1.989h.568c.777,0,1.58,0,2.371-.006a.552.552,0,0,1,.059,0,.623.623,0,0,1,0,.064c-.005,1.936-.005,3.905-.005,5.809q0,.662,0,1.326a5.376,5.376,0,0,1,1.362.467c0-1.542,0-3.1,0-4.612q0-1.922,0-3.844a.987.987,0,0,0-.263-.713c-.234-.258-.464-.531-.686-.794-.108-.127-.215-.255-.324-.382l-.959-1.118c-.854-1-1.738-2.026-2.6-3.043a.937.937,0,0,0-.776-.346h0c-2.147.006-4.33.005-6.441,0h-5.326a1.922,1.922,0,0,0-2.071,2.07q0,3.367,0,6.735v5.341q0,3.4,0,6.808a1.923,1.923,0,0,0,2.034,2.026h4.469c2.035,0,4.134,0,6.208,0a5.459,5.459,0,0,1-.753-1.359Zm6.02-18.965q0-.2,0-.4l3.048,3.569h-.344c-.7,0-1.42,0-2.129,0a.542.542,0,0,1-.571-.541C1542.346,2758.049,1542.349,2757.16,1542.352,2756.3Z" transform="translate(0)" fill="#052d49"/>
    <path id="Path_837" data-name="Path 837" d="M1816.128,3087.387a.415.415,0,0,0-.1-.332.426.426,0,0,0-.332-.095h-1.681v-.094q0-.726,0-1.452a.579.579,0,0,0-.112-.448.568.568,0,0,0-.445-.121h-.014a.405.405,0,0,0-.31.106.417.417,0,0,0-.108.307c0,.321,0,.649,0,.965q0,.37,0,.739c-.37,0-.744,0-1.106,0h-.431a.6.6,0,0,0-.454.109c-.119.113-.122.253-.125.448v.015a.375.375,0,0,0,.415.417c.286,0,.578,0,.86,0s.559,0,.841,0c0,.366,0,.736,0,1.094q0,.223,0,.446a.588.588,0,0,0,.113.455c.114.116.256.118.453.12h.023a.4.4,0,0,0,.294-.106.41.41,0,0,0,.107-.3c0-.3,0-.607,0-.9,0-.264,0-.536,0-.806.454,0,.913,0,1.358,0h.358a.424.424,0,0,0,.277-.072l.089-.064.018-.107,0-.01a.517.517,0,0,0,.012-.094c0-.054,0-.107,0-.161Z" transform="translate(-268.319 -313.991)" fill="#052d49"/>
    <path id="Path_838" data-name="Path 838" d="M1774.3,3044.343a4.726,4.726,0,1,0,4.708,4.721A4.74,4.74,0,0,0,1774.3,3044.343Zm-.028,8.36a3.637,3.637,0,1,1,3.664-3.658A3.617,3.617,0,0,1,1774.276,3052.7Z" transform="translate(-229.114 -275.594)" fill="#052d49"/>
    <path id="Path_839" data-name="Path 839" d="M1619.925,2920.141c-.011-.146,0-.294,0-.441,0-.391,0-.392-.314-.392h-10.125c-.633,0-.633,0-.631.78,0,.377,0,.378.3.378h8.079c.808,0,1.617-.007,2.426,0C1619.865,2920.475,1619.943,2920.388,1619.925,2920.141Z" transform="translate(-76.757 -157.056)" fill="#052d49"/>
    <path id="Path_840" data-name="Path 840" d="M1617.712,3006.523c.632,0,1.263.009,1.9.016.169,0,.266-.07.249-.3-.011-.154,0-.311,0-.467,0-.376,0-.377-.3-.377h-7.4c-1.034,0-2.067.006-3.1,0-.206,0-.278.086-.263.331.012.2,0,.4,0,.6,0,.136.049.2.167.205.758,0,1.516.01,2.274.01s1.531-.005,2.3,0c.632,0,1.263.01,1.895.009C1616.181,3006.533,1616.947,3006.522,1617.712,3006.523Z" transform="translate(-76.687 -238.661)" fill="#052d49"/>
    <path id="Path_841" data-name="Path 841" d="M1608.858,3092.489c.347,0,.695.01,1.042.011s.7-.005,1.052-.005c.289,0,.579.01.868.009.351,0,.7-.011,1.052-.01.289,0,.579.009.868.016.078,0,.122-.07.114-.3-.005-.155,0-.312,0-.467,0-.376,0-.376-.139-.376h-3.391c-.473,0-.947.006-1.42,0-.094,0-.127.086-.121.331.005.2,0,.4,0,.6C1608.782,3092.42,1608.8,3092.489,1608.858,3092.489Z" transform="translate(-76.687 -320.164)" fill="#052d49"/>
    <path id="Path_842" data-name="Path 842" d="M1609.047,2834.824h6.263c.391,0,.391,0,.389-.779,0-.343,0-.347-.175-.347h-6.3c-.371,0-.371,0-.37.74C1608.853,2834.824,1608.853,2834.824,1609.047,2834.824Z" transform="translate(-76.756 -75.894)" fill="#052d49"/>
  </g>
</svg>
