<svg xmlns="http://www.w3.org/2000/svg" width="23.752" height="27.569" viewBox="0 0 23.752 27.569">
  <g id="Examiner_Worksheet" data-name="Examiner Worksheet" transform="translate(-840.648 -1985.491)">
    <path id="Path_661" data-name="Path 661" d="M853.506,2008.852a3.525,3.525,0,0,0-.568-.035h-3.985q-2.746,0-5.492,0a.7.7,0,0,1-.766-.771v-17.536c0-.307.043-.368.33-.463a1.259,1.259,0,0,1,.406-.061c.7,0,1.4,0,2.086,0h.806a.839.839,0,0,0,1.012-1,.243.243,0,0,1,.137-.252,7.728,7.728,0,0,1,2.156-.9,10.728,10.728,0,0,1,3.96-.191,6.228,6.228,0,0,1,2.81.976.456.456,0,0,1,.252.466.855.855,0,0,0,.2.657.919.919,0,0,0,.7.243h3.507c.23,0,.23,0,.237.232,0,.088,0,.175,0,.267v2.986q0,4.328,0,8.655a.915.915,0,0,0,.238.671.739.739,0,0,0,.545.2c.468-.008.748-.332.748-.869v-1.34c0-3.465,0-7.049,0-10.574a1.62,1.62,0,0,0-1.758-1.762h-2.9a.832.832,0,0,0-.349-.662,6.035,6.035,0,0,0-1.894-1.135,11.437,11.437,0,0,0-6.888-.245,8.067,8.067,0,0,0-2.769,1.3.964.964,0,0,0-.479.706.244.244,0,0,1,0,.031.525.525,0,0,1-.082,0c-.579-.007-1.167,0-1.736,0h-.286a4.184,4.184,0,0,0-.856.056,1.9,1.9,0,0,0-1.67,2.021q0,3.04,0,6.08v2.675q0,1.237,0,2.474c0,2.084.009,4.24-.018,6.358a2.268,2.268,0,0,0,.682,1.566,2.242,2.242,0,0,0,1.594.694h3.451l6.294,0a1.656,1.656,0,0,0,.366-.033.773.773,0,0,0,.614-.774A.745.745,0,0,0,853.506,2008.852Z" transform="translate(0 0)" fill="#052d49" stroke="rgba(0,0,0,0)" stroke-width="1"/>
    <path id="Path_662" data-name="Path 662" d="M1089.024,2300.234a4.87,4.87,0,1,0,4.852,4.865A4.884,4.884,0,0,0,1089.024,2300.234Zm-.029,8.615a3.748,3.748,0,1,1,3.775-3.77A3.728,3.728,0,0,1,1088.995,2308.849Z" transform="translate(-229.975 -297.413)" fill="#052d49" stroke="rgba(0,0,0,0)" stroke-width="1"/>
    <path id="Path_663" data-name="Path 663" d="M1004.969,2130.989q-2.193,0-4.387,0h-4.414a1.1,1.1,0,0,0-.4.05.515.515,0,0,0-.364.532.506.506,0,0,0,.4.506,1.323,1.323,0,0,0,.37.042q4.4,0,8.8,0c.506,0,.789-.211.784-.571S1005.483,2130.99,1004.969,2130.989Z" transform="translate(-146 -137.229)" fill="#052d49" stroke="rgba(0,0,0,0)" stroke-width="1"/>
    <path id="Path_664" data-name="Path 664" d="M1005.668,2213.327c.008-.337-.251-.549-.675-.549h-5.723c-1.123,0-2.246,0-3.37,0a.544.544,0,0,0-.578.659c.053.278.3.442.674.442q4.493,0,8.986,0C1005.4,2213.88,1005.66,2213.662,1005.668,2213.327Z" transform="translate(-145.907 -214.639)" fill="#052d49" stroke="rgba(0,0,0,0)" stroke-width="1"/>
    <path id="Path_665" data-name="Path 665" d="M903.9,2279.748l-.362,0h-1.508a.544.544,0,0,0-.612.583q-.016.948,0,1.9a.536.536,0,0,0,.542.58q.491.015.983.015.51,0,1.019-.017a.534.534,0,0,0,.531-.588q.011-.948,0-1.9A.534.534,0,0,0,903.9,2279.748Zm-.049,2.418c-.3.009-.6.014-.908.014-.289,0-.586,0-.883-.012-.009-.627-.009-1.21,0-1.777l.329,0h1.149l.313,0C903.853,2280.959,903.853,2281.541,903.847,2282.166Z" transform="translate(-57.031 -278.022)" fill="#052d49" stroke="rgba(0,0,0,0)" stroke-width="1"/>
    <path id="Path_666" data-name="Path 666" d="M904.484,2113.383a.562.562,0,0,0-.6-.6q-.449-.006-.9-.005-.486,0-.972.006a.557.557,0,0,0-.606.6q-.014.935,0,1.87a.571.571,0,0,0,.6.607q.481.006.961.006.454,0,.909-.005a.566.566,0,0,0,.6-.6c.007-.312,0-.623,0-.935S904.49,2113.694,904.484,2113.383Zm-.642,1.832c-.287,0-.58.005-.871.005s-.615,0-.923-.006c-.008-.609-.008-1.211,0-1.792.319,0,.634-.005.936-.005s.579,0,.857.005c0,.2,0,.4,0,.6,0,.1,0,.2,0,.3s0,.191,0,.286C903.845,2114.815,903.846,2115.014,903.842,2115.215Z" transform="translate(-57.025 -119.992)" fill="#052d49" stroke="rgba(0,0,0,0)" stroke-width="1"/>
    <path id="Path_667" data-name="Path 667" d="M904.482,2196.477a.555.555,0,0,0-.558-.6q-.478-.011-.956-.011-.5,0-1,.01a.542.542,0,0,0-.559.539q-.023.991,0,1.981a.548.548,0,0,0,.6.552c.119,0,.238,0,.356,0h1.491a.562.562,0,0,0,.628-.6C904.49,2197.727,904.489,2197.1,904.482,2196.477Zm-.642,1.835h-1.477l-.312,0c-.012-.585-.012-1.186,0-1.789.315-.006.623-.009.916-.009s.59,0,.872.009C903.847,2197.17,903.847,2197.756,903.84,2198.313Z" transform="translate(-57.024 -198.638)" fill="#052d49" stroke="rgba(0,0,0,0)" stroke-width="1"/>
    <path id="Path_668" data-name="Path 668" d="M998.1,2297.851a.567.567,0,0,0-.631.576c.01.32.256.524.645.525q1.191,0,2.382,0c.8,0,1.606,0,2.408,0a.554.554,0,1,0,.013-1.1Q1000.513,2297.845,998.1,2297.851Z" transform="translate(-147.954 -295.155)" fill="#052d49" stroke="rgba(0,0,0,0)" stroke-width="1"/>
    <path id="Path_669" data-name="Path 669" d="M1139.556,2356.4a.454.454,0,0,0-.622.122,1.986,1.986,0,0,0-.112.17l-1.673,2.647c-.053-.077-.088-.125-.12-.174-.164-.253-.324-.509-.492-.759a.469.469,0,1,0-.79.5c.026.046.056.089.084.134q.418.645.837,1.289c.309.479.657.478.966-.009q.739-1.164,1.472-2.332c.2-.319.407-.634.6-.958A.453.453,0,0,0,1139.556,2356.4Z" transform="translate(-278.741 -350.502)" fill="#052d49" stroke="rgba(0,0,0,0)" stroke-width="1"/>
  </g>
</svg>
