<svg xmlns="http://www.w3.org/2000/svg" width="18.838" height="16.257" viewBox="0 0 18.838 16.257">
  <g id="Flip_Icon" data-name="Flip Icon" transform="translate(-369.64 -345)">
    <path id="Path_880" data-name="Path 880" d="M3284.248-1065.3l-.041,1.071a.5.5,0,0,0,.732.461l2.47-1.3a.5.5,0,0,0,.033-.864l-2.365-1.487a.5.5,0,0,0-.765.4l-.035.944a19.6,19.6,0,0,1-3.577-.56,6.694,6.694,0,0,1-2.233-.909c-.654-.459-.649-.865,0-1.335a6.823,6.823,0,0,1,.851-.472.362.362,0,0,0,.191-.5.356.356,0,0,0-.476-.194,3.647,3.647,0,0,0-1.477.967,1.232,1.232,0,0,0-.018,1.707,3.218,3.218,0,0,0,1.228.874,15.516,15.516,0,0,0,4.763,1.126Q3283.887-1065.324,3284.248-1065.3Z" transform="translate(-2907.562 1422.752)" fill="#e65752"/>
    <path id="Path_881" data-name="Path 881" d="M3519.879-1068.93a3.244,3.244,0,0,0-1.659-1.175.327.327,0,0,0-.406.166.341.341,0,0,0,.026.42.679.679,0,0,0,.275.18,3.3,3.3,0,0,1,.944.588.581.581,0,0,1-.009.976,3.012,3.012,0,0,1-.841.53,15.14,15.14,0,0,1-4.7,1.094c-.417.044-.313.064-.731.1a.36.36,0,0,0-.357.392.359.359,0,0,0,.383.34c.063,0,.127,0,.2,0a18.224,18.224,0,0,0,2.436-.35,12.208,12.208,0,0,0,3.134-.925,3.081,3.081,0,0,0,1.241-.932A1.213,1.213,0,0,0,3519.879-1068.93Z" transform="translate(-3131.597 1422.808)" fill="#e65752"/>
    <path id="Path_882" data-name="Path 882" d="M3350.382-968.36a.38.38,0,0,0-.38.38v2.024a.572.572,0,0,1-.571.571H3338.9a.572.572,0,0,1-.571-.571v-2.024a.38.38,0,0,0-.381-.38.38.38,0,0,0-.38.38v2.024a1.332,1.332,0,0,0,1.332,1.332h10.529a1.332,1.332,0,0,0,1.332-1.332v-2.024A.38.38,0,0,0,3350.382-968.36Z" transform="translate(-2965.06 1325.881)" fill="#e65752"/>
    <path id="Path_883" data-name="Path 883" d="M3337.951-1221.276a.38.38,0,0,0,.381-.38v-8.651a.572.572,0,0,1,.571-.571h10.529a.572.572,0,0,1,.571.571v8.651a.381.381,0,0,0,.38.38.381.381,0,0,0,.381-.38v-8.651a1.332,1.332,0,0,0-1.332-1.332H3338.9a1.332,1.332,0,0,0-1.332,1.332v8.651A.38.38,0,0,0,3337.951-1221.276Z" transform="translate(-2965.06 1576.64)" fill="#e65752"/>
    <path id="Path_884" data-name="Path 884" d="M3395.247-1182.28h-7.715a.381.381,0,0,0-.381.38.381.381,0,0,0,.381.381h7.715a.38.38,0,0,0,.38-.381A.38.38,0,0,0,3395.247-1182.28Z" transform="translate(-3012.282 1529.627)" fill="#e65752"/>
    <path id="Path_885" data-name="Path 885" d="M3395.247-1116.28h-7.715a.381.381,0,0,0-.381.38.381.381,0,0,0,.381.38h7.715a.38.38,0,0,0,.38-.38A.38.38,0,0,0,3395.247-1116.28Z" transform="translate(-3012.282 1466.766)" fill="#e65752"/>
    <path id="Path_886" data-name="Path 886" d="M3395.247-1046.28h-7.715a.381.381,0,0,0-.381.38.381.381,0,0,0,.381.38h7.715a.38.38,0,0,0,.38-.38A.38.38,0,0,0,3395.247-1046.28Z" transform="translate(-3012.282 1400.095)" fill="#e65752"/>
  </g>
</svg>
