<?xml version="1.0" encoding="utf-8"?>
<!-- Generator: Adobe Illustrator 23.0.2, SVG Export Plug-In . SVG Version: 6.00 Build 0)  -->
<svg version="1.1" id="Layer_1" xmlns="http://www.w3.org/2000/svg" xmlns:xlink="http://www.w3.org/1999/xlink" x="0px" y="0px"
	 viewBox="0 0 18 18" style="enable-background:new 0 0 18 18;" xml:space="preserve">
<style type="text/css">
	.st0{opacity:0;fill:#FFFFFF;}
	.st1{fill:#FFFFFF;}
</style>
<rect x="0.1" y="0.1" class="st0" width="18" height="18"/>
<g id="Group_1477" transform="translate(2369.478 357.127)">
	<path id="Path_802" class="st1" d="M-2353.1-348.9v0.3c0,2.8,0,5.6,0,8.4c0,0.2,0,0.4-0.1,0.6c-0.2,0.3-0.5,0.5-0.9,0.5
		c-1.3,0-2.6,0-3.9,0c-0.5,0-1-0.4-1-1c0,0,0,0,0,0c0-1.8,0-3.6,0-5.5c0-0.3,0-0.3-0.3-0.3h-2.5c-0.3,0-0.3,0-0.3,0.3
		c0,1.8,0,3.6,0,5.4c0,0.5-0.4,1-0.9,1.1c-0.1,0-0.1,0-0.2,0h-3.7c-0.6,0-1-0.4-1.1-0.9c0,0,0-0.1,0-0.1c0-0.2,0-0.3,0-0.5v-8.2
		c-0.1,0-0.1,0.1-0.2,0.1c-0.2,0.2-0.5,0.5-0.7,0.7c-0.2,0.2-0.4,0.2-0.6,0c0,0,0,0,0,0c-0.2-0.2-0.2-0.4,0-0.6c0,0,0,0,0,0
		c0.2-0.2,0.4-0.4,0.6-0.6c1.4-1.4,2.9-2.9,4.3-4.3c1.1-1.1,2.2-2.1,3.2-3.2c0.4-0.4,1-0.5,1.4-0.1c0,0,0.1,0.1,0.1,0.1
		c2.7,2.7,5.4,5.4,8,8c0,0,0.1,0.1,0.1,0.1c0.2,0.2,0.1,0.4,0,0.6c-0.2,0.2-0.4,0.2-0.6,0c-0.2-0.2-0.5-0.5-0.7-0.7
		C-2352.9-348.8-2353-348.8-2353.1-348.9z M-2367-344.9c0,1.6,0,3.1,0,4.7c0,0.3,0,0.3,0.3,0.3h3.5c0.3,0,0.3,0,0.3-0.3
		c0-1.8,0-3.6,0-5.4c0-0.5,0.4-1,0.9-1c0,0,0.1,0,0.1,0h2.7c0.5,0,1,0.4,1.1,0.9c0,0,0,0.1,0,0.1c0,1.8,0,3.6,0,5.4
		c0,0.3,0,0.3,0.3,0.3h3.5c0.3,0,0.3,0,0.3-0.3c0-3.1,0-6.2,0-9.4c0-0.1,0-0.3-0.1-0.3c-2.1-2-4.1-4.1-6.1-6.1
		c-0.2-0.2-0.2-0.2-0.4,0c-2,2-4.1,4.1-6.1,6.1c-0.1,0.1-0.1,0.2-0.1,0.3C-2367-348-2367-346.5-2367-344.9L-2367-344.9z"/>
</g>
</svg>
