<svg xmlns="http://www.w3.org/2000/svg" width="23.925" height="23.925" viewBox="0 0 23.925 23.925">
  <g id="Month_Previous" transform="translate(-104.089 -689.089)">
    <circle id="Ellipse_85" data-name="Ellipse 85" cx="11.962" cy="11.962" r="11.962" transform="translate(128.014 713.014) rotate(180)" fill="#e65752"/>
    <g id="Group_782" data-name="Group 782" transform="translate(118.615 706.5) rotate(180)">
      <path id="Path_398" data-name="Path 398" d="M5.3,5.715c0-.061-.05-.09-.09-.125q-1.291-1.2-2.578-2.413Q1.362,1.988.089.8C-.022.7-.025.635.089.538.258.394.419.24.573.082c.1-.108.179-.111.294,0C1.434.624,2.014,1.162,2.588,1.7Q4.631,3.608,6.675,5.514a.492.492,0,0,0,.079.072c.122.09.1.161,0,.255Q5.062,7.41,3.384,8.984,2.142,10.146.9,11.307c-.176.161-.176.165-.355,0-.154-.14-.3-.294-.459-.427-.115-.093-.1-.158,0-.255C.91,9.859,1.735,9.084,2.559,8.314L5.205,5.84C5.237,5.8,5.284,5.775,5.3,5.715Z" transform="translate(0 0)" fill="#fff"/>
    </g>
  </g>
</svg>
