<svg xmlns="http://www.w3.org/2000/svg" width="23.925" height="23.925" viewBox="0 0 23.925 23.925">
  <g id="Month_Next" transform="translate(-409.986 -689.089)">
    <path id="Path_578" data-name="Path 578" d="M11.962,0A11.962,11.962,0,1,1,0,11.962,11.962,11.962,0,0,1,11.962,0Z" transform="translate(409.986 689.089)" fill="#e65752"/>
    <g id="Group_780" data-name="Group 780" transform="translate(419.385 695.07)">
      <path id="Path_398" data-name="Path 398" d="M5.309,5.714c0-.061-.05-.09-.09-.125q-1.291-1.2-2.578-2.413Q1.373,1.987.1.8C-.011.7-.014.634.1.537.269.394.43.24.584.082c.1-.108.179-.111.294,0C1.445.623,2.025,1.161,2.6,1.7Q4.643,3.608,6.686,5.513a.492.492,0,0,0,.079.072c.122.09.1.161,0,.255Q5.073,7.41,3.395,8.983,2.153,10.145.907,11.307c-.176.161-.176.165-.355,0-.154-.14-.3-.294-.459-.427-.115-.093-.1-.158,0-.255C.921,9.858,1.746,9.084,2.57,8.313L5.216,5.839C5.248,5.8,5.3,5.775,5.309,5.714Z" transform="translate(-0.011 0.001)" fill="#fff"/>
    </g>
  </g>
</svg>
