<svg xmlns="http://www.w3.org/2000/svg" width="14.813" height="14.816" viewBox="0 0 14.813 14.816">
  <g id="Not_Available" data-name="Not Available" transform="translate(-227.499 -525.502)">
    <path id="Subtraction_1" data-name="Subtraction 1" d="M8791.9,12932.818h-.053a6.879,6.879,0,0,1-4.839-2.054,6.87,6.87,0,0,1,0-9.708,6.87,6.87,0,0,1,4.9-2.055h.03a6.908,6.908,0,0,1-.035,13.816Zm-2.961-7.6c-.269,0-.487.3-.487.659s.219.652.487.652h6.216c.267,0,.483-.293.483-.652s-.217-.659-.483-.659Z" transform="translate(-8557 -12393)" fill="#e65752" stroke="rgba(0,0,0,0)" stroke-width="1"/>
  </g>
</svg>
