<svg xmlns="http://www.w3.org/2000/svg" width="19.373" height="19.032" viewBox="0 0 19.373 19.032">
  <g id="Schedule_Closing_NavBar" data-name="Schedule Closing_NavBar" transform="translate(-4340.66 -3116.446)">
    <path id="Path_648" data-name="Path 648" d="M4348.728,3133.383c0-.172,0-.3-.091-.391s-.213-.094-.394-.094h-6.215a.787.787,0,0,1-.25-.021.909.909,0,0,1-.021-.258v-4.895q0-3.942,0-7.885c0-.181.02-.22.025-.227s.044-.025.219-.025h.348c.688,0,1.4,0,2.1,0h.181c0,.018,0,.036,0,.054,0,.033,0,.07,0,.111a1.327,1.327,0,0,0,.9,1.205,1.3,1.3,0,0,0,1.683-1.371c.713,0,1.474,0,2.386,0,0,.052,0,.109,0,.176a1.338,1.338,0,0,0,1.246,1.259,1.306,1.306,0,0,0,1.337-1.277c0-.043,0-.082,0-.116,0-.014,0-.028,0-.042h2.6c.359,0,.73,0,1.1,0,.162,0,.182.019.2.178a1.142,1.142,0,0,1,0,.131v.045c0,.4,0,.729,0,1.024,0,.624,0,1.116,0,1.967,0,.07,0,.128,0,.18,0,.163-.007.281.084.375s.215.1.417.1l.157,0a.37.37,0,0,0,.422-.418c0-1.262,0-1.891,0-3.033v-.4a1.109,1.109,0,0,0-.188-.618,1.324,1.324,0,0,0-1.171-.632h0c-1.043,0-2.1,0-3.131,0h-.131a1.984,1.984,0,0,1-.332-.014,1.925,1.925,0,0,1-.017-.319v-.012c0-.062,0-.125,0-.191a1.638,1.638,0,0,0-.049-.58,1.319,1.319,0,0,0-1.474-.9,1.332,1.332,0,0,0-1.062,1.285v.091c0,.2-.008.413,0,.622,0,.01,0,.018,0,.025h-.042c-.589-.007-1.188,0-1.768,0h-.24a2.015,2.015,0,0,1-.33-.013,2.068,2.068,0,0,1-.017-.32v-.011c0-.061,0-.123,0-.187a1.7,1.7,0,0,0-.042-.561,1.3,1.3,0,0,0-2.543.356c0,.047,0,.094,0,.142,0,.186-.006.379.005.571,0,.009,0,.017,0,.023h-.042c-.943-.007-1.795-.007-2.606,0a1.3,1.3,0,0,0-1.325,1.341q0,2.234,0,4.469v3.59q0,2.38,0,4.76a1.293,1.293,0,0,0,1.351,1.352h6.311a.406.406,0,0,0,.316-.089c.093-.092.091-.206.089-.378C4348.728,3133.489,4348.728,3133.44,4348.728,3133.383Zm-2.52-14.309c0,.266,0,.54,0,.809a.313.313,0,0,1-.139.279.333.333,0,0,1-.329-.02.131.131,0,0,1-.073-.13c0-.845,0-1.719,0-2.579,0-.06,0-.122.191-.149a.734.734,0,0,1,.091-.006c.086,0,.2.02.225.113a.849.849,0,0,1,.031.238c0,.27,0,.545,0,.813v.3h0Q4346.207,3118.91,4346.208,3119.074Zm4.977.821a.351.351,0,0,1-.075.265c-.039.03-.148.069-.435-.009-.041-.011-.049-.1-.048-.173,0-.14,0-.282,0-.419,0-.069,0-.139,0-.209v-1.028c0-.263,0-.534,0-.8,0-.22.038-.257.257-.263.243-.006.289.062.3.256.01.246.008.5.007.742,0,.1,0,.2,0,.294,0,.161,0,.321,0,.482C4351.184,3119.315,4351.183,3119.608,4351.185,3119.9Z" fill="#fff"/>
    <path id="Path_649" data-name="Path 649" d="M4552.454,3311.45a5.713,5.713,0,0,0-4.062-1.71,5.845,5.845,0,0,0-5.761,5.771,5.816,5.816,0,0,0,5.688,5.752h.153a5.813,5.813,0,0,0,5.686-5.74A5.757,5.757,0,0,0,4552.454,3311.45Zm-8.721,4.048a4.54,4.54,0,0,1,1.3-3.26,4.661,4.661,0,0,1,3.317-1.4h.047a4.749,4.749,0,0,1,3.33,1.351,4.628,4.628,0,0,1,1.343,3.328,4.57,4.57,0,0,1-4.643,4.664,4.587,4.587,0,0,1-4.692-4.677v-.006Z" transform="translate(-194.125 -185.785)" fill="#fff"/>
    <path id="Path_650" data-name="Path 650" d="M4409.039,3259.405c.293,0,.456,0,.575-.119s.118-.278.116-.567v-.017a.39.39,0,0,0-.1-.287.4.4,0,0,0-.3-.094c-.519.006-.817.005-1.23,0h-.454l-.841,0-.9,0h-2.386v.01h-5.272c-.232,0-.372,0-.478.106s-.1.245-.1.477c0,.185,0,.307.1.4s.213.091.408.091h10.875Z" transform="translate(-54.783 -136.36)" fill="#fff"/>
    <path id="Path_651" data-name="Path 651" d="M4392.828,3396.615c0-.139,0-.283,0-.421s0-.26,0-.39c0-.082,0-.149,0-.208,0-.181,0-.3-.091-.4s-.224-.1-.431-.1h-.207a.374.374,0,0,0-.277.1.391.391,0,0,0-.1.289c0,.136,0,.277,0,.412,0,.054,0,.109,0,.163v.071c0,.068,0,.136,0,.2s0,.139,0,.192c0,.184,0,.3.091.4s.214.1.411.1c.055,0,.119,0,.195,0h.018a.387.387,0,0,0,.288-.1A.417.417,0,0,0,4392.828,3396.615Z" transform="translate(-49.078 -267.834)" fill="#fff"/>
    <path id="Path_652" data-name="Path 652" d="M4443.847,3395.2c-.1-.1-.223-.1-.432-.1-.058,0-.126,0-.208,0a.365.365,0,0,0-.278.1.389.389,0,0,0-.1.288c0,.137,0,.277,0,.413,0,.054,0,.109,0,.164v.075q0,.1,0,.2c0,.077,0,.141,0,.2,0,.182,0,.3.092.4s.219.1.421.1c.058,0,.124,0,.2,0h.011a.372.372,0,0,0,.275-.1.4.4,0,0,0,.1-.3c0-.14,0-.282,0-.421s0-.274,0-.411c0-.086,0-.156,0-.217C4443.938,3395.417,4443.94,3395.3,4443.847,3395.2Z" transform="translate(-98.202 -267.832)" fill="#fff"/>
    <path id="Path_653" data-name="Path 653" d="M4495.061,3395.8c0-.086,0-.159,0-.218,0-.165,0-.284-.088-.378s-.219-.1-.424-.1h-.2a.38.38,0,0,0-.29.1.4.4,0,0,0-.1.292c0,.139,0,.281,0,.418s0,.275,0,.413c0,.077,0,.143,0,.2,0,.189,0,.314.093.412a.441.441,0,0,0,.345.1h.091c.061,0,.132,0,.216,0h.006a.346.346,0,0,0,.256-.1.356.356,0,0,0,.095-.267c0-.134,0-.27,0-.4v-.279C4495.062,3395.925,4495.062,3395.861,4495.061,3395.8Z" transform="translate(-147.344 -267.832)" fill="#fff"/>
    <path id="Path_654" data-name="Path 654" d="M4392.741,3471.859c-.1-.1-.221-.1-.444-.1h-.213a.339.339,0,0,0-.257.091.359.359,0,0,0-.1.274c0,.134,0,.27,0,.4v.279c0,.063,0,.127,0,.19,0,.082,0,.149,0,.208,0,.175,0,.291.09.385s.214.095.412.094c.06,0,.129,0,.213,0h.012a.372.372,0,0,0,.274-.1.4.4,0,0,0,.1-.3c0-.137,0-.277,0-.412s0-.279,0-.42c0-.083,0-.151,0-.21C4392.833,3472.08,4392.836,3471.955,4392.741,3471.859Z" transform="translate(-49.083 -341.514)" fill="#fff"/>
    <path id="Path_655" data-name="Path 655" d="M4443.854,3471.835c-.1-.1-.229-.1-.463-.1h-.2a.348.348,0,0,0-.258.1.359.359,0,0,0-.1.266q0,.193,0,.385v.285c0,.067,0,.135,0,.2s0,.133,0,.185c0,.189,0,.314.092.411s.222.1.411.095h.225a.37.37,0,0,0,.275-.1.4.4,0,0,0,.1-.294c0-.132,0-.267,0-.4s0-.289,0-.435c0-.092,0-.168,0-.229C4443.945,3472.048,4443.948,3471.93,4443.854,3471.835Z" transform="translate(-98.208 -341.491)" fill="#fff"/>
    <path id="Path_656" data-name="Path 656" d="M4494.987,3471.832c-.1-.1-.216-.1-.433-.1h-.187a.351.351,0,0,0-.393.39c0,.135,0,.273,0,.407s0,.283,0,.425c0,.084,0,.154,0,.215,0,.181,0,.3.09.4a.432.432,0,0,0,.341.094h.083c.064,0,.137,0,.226,0a.326.326,0,0,0,.36-.358c0-.133,0-.269,0-.4v-.194c0-.03,0-.06,0-.091,0-.066,0-.135,0-.2s0-.149,0-.207C4495.077,3472.042,4495.079,3471.925,4494.987,3471.832Z" transform="translate(-147.358 -341.486)" fill="#fff"/>
    <path id="Path_657" data-name="Path 657" d="M4495.053,3319.257c0-.089,0-.162,0-.221,0-.16,0-.275-.087-.367s-.216-.095-.417-.094c-.059,0-.129,0-.213,0a.373.373,0,0,0-.282.1.368.368,0,0,0-.1.281c0,.147,0,.3,0,.442s0,.273,0,.409c0,.066,0,.123,0,.172,0,.193,0,.32.094.419s.2.1.39.1h.264a.35.35,0,0,0,.26-.1.356.356,0,0,0,.094-.268c0-.133,0-.27,0-.4v-.194c0-.028,0-.056,0-.084C4495.054,3319.386,4495.054,3319.321,4495.053,3319.257Z" transform="translate(-147.336 -194.275)" fill="#fff"/>
    <path id="Path_658" data-name="Path 658" d="M4670.329,3372.978c.418-.005.845,0,1.257,0h.914c.337,0,.686,0,1.029,0,.076,0,.139,0,.193,0h.087a.369.369,0,0,0,.28-.086c.1-.1.1-.221.1-.448,0-.041,0-.087,0-.139a.417.417,0,0,0-.107-.315.438.438,0,0,0-.318-.109l-1.028.007c-.552,0-1.123.005-1.684.014h-.04c0-.011,0-.026,0-.046.007-.732.007-1.533,0-2.448,0-.078,0-.143,0-.2,0-.178.006-.3-.087-.391s-.22-.1-.422-.1h-.192a.388.388,0,0,0-.295.1.418.418,0,0,0-.106.3c0,1.326,0,2.423,0,3.452a.366.366,0,0,0,.415.406Z" transform="translate(-316.465 -242.472)" fill="#fff"/>
  </g>
</svg>
