<svg xmlns="http://www.w3.org/2000/svg" width="27.041" height="26.566" viewBox="0 0 27.041 26.566">
  <g id="Schedule_Closing" data-name="Schedule Closing" transform="translate(-4340.66 -3116.446)">
    <path id="Path_648" data-name="Path 648" d="M4351.922,3140.087c0-.24,0-.414-.127-.545s-.3-.131-.549-.131h-8.675a1.112,1.112,0,0,1-.349-.028,1.275,1.275,0,0,1-.028-.361q0-1.986,0-3.972v-2.86q0-5.5,0-11.006c0-.253.027-.307.035-.317s.063-.035.306-.035h.486c.96,0,1.953,0,2.93,0h.252c0,.024,0,.05,0,.075,0,.046,0,.1,0,.155a1.851,1.851,0,0,0,1.256,1.682,1.818,1.818,0,0,0,2.348-1.913c1,0,2.058,0,3.331,0,0,.073,0,.152,0,.245a1.866,1.866,0,0,0,1.738,1.757,1.823,1.823,0,0,0,1.867-1.782c0-.061,0-.115,0-.162,0-.019,0-.039,0-.058h3.631c.5,0,1.02,0,1.529,0,.225,0,.253.027.273.248,0,.056,0,.118,0,.184v.063c0,.565,0,1.018,0,1.43,0,.87,0,1.557,0,2.746,0,.1,0,.179,0,.251-.006.227-.01.392.117.523s.3.136.583.139l.22,0a.59.59,0,0,0,.439-.141.6.6,0,0,0,.15-.443c-.007-1.762-.006-2.64,0-4.234v-.563a1.551,1.551,0,0,0-.262-.863,1.849,1.849,0,0,0-1.636-.882h0c-1.457,0-2.938,0-4.371,0h-.183a2.865,2.865,0,0,1-.463-.02,2.762,2.762,0,0,1-.024-.446v-.017c0-.086,0-.174.006-.267a2.265,2.265,0,0,0-.068-.809,1.84,1.84,0,0,0-2.058-1.262,1.859,1.859,0,0,0-1.482,1.793l0,.127c-.006.283-.011.576.005.868,0,.013,0,.025,0,.035h-.057c-.823-.009-1.659-.007-2.468-.005h-.335a2.967,2.967,0,0,1-.46-.018,2.874,2.874,0,0,1-.023-.447v-.015c0-.085,0-.171.006-.262a2.365,2.365,0,0,0-.058-.782,1.808,1.808,0,0,0-3.55.5c0,.066,0,.131,0,.2,0,.26-.009.529.007.8,0,.013,0,.023,0,.032l-.058,0c-1.316-.01-2.506-.01-3.638,0a1.811,1.811,0,0,0-1.85,1.873q0,3.119,0,6.238v5.011q0,3.322,0,6.644a1.805,1.805,0,0,0,1.886,1.887h2.149c2.123,0,4.089,0,6.364,0h.3a.565.565,0,0,0,.441-.125c.129-.128.127-.287.125-.528C4351.922,3140.236,4351.921,3140.167,4351.922,3140.087Zm-3.518-19.972c0,.371,0,.753,0,1.129a.44.44,0,0,1-.194.39.463.463,0,0,1-.458-.028.183.183,0,0,1-.1-.182c0-1.18,0-2.4,0-3.6,0-.083,0-.17.267-.208a.916.916,0,0,1,.127-.009c.12,0,.273.027.313.158a1.221,1.221,0,0,1,.044.333c0,.377,0,.762,0,1.134v.424h0C4348.4,3119.808,4348.4,3119.962,4348.4,3120.115Zm6.947,1.146a.494.494,0,0,1-.1.37c-.054.042-.207.1-.607-.013-.057-.015-.068-.14-.066-.241,0-.2,0-.394,0-.585,0-.1,0-.194,0-.292v-1.436c0-.367,0-.746,0-1.118,0-.308.053-.359.359-.367.339-.009.4.086.414.358.013.343.011.7.009,1.035,0,.137,0,.274,0,.41,0,.225,0,.449,0,.674C4355.35,3120.451,4355.349,3120.859,4355.352,3121.261Z" fill="#052d49"/>
    <path id="Path_649" data-name="Path 649" d="M4556.342,3312.127a7.974,7.974,0,0,0-5.669-2.387,8.158,8.158,0,0,0-8.042,8.056,8.117,8.117,0,0,0,7.94,8.03h.214a8.114,8.114,0,0,0,7.936-8.012A8.037,8.037,0,0,0,4556.342,3312.127Zm-12.174,5.65a6.336,6.336,0,0,1,1.813-4.55,6.5,6.5,0,0,1,4.629-1.956h.065a6.631,6.631,0,0,1,4.648,1.886,6.461,6.461,0,0,1,1.875,4.646,6.379,6.379,0,0,1-6.48,6.51,6.4,6.4,0,0,1-6.55-6.529v-.009Z" transform="translate(-191.02 -182.813)" fill="#052d49"/>
    <path id="Path_650" data-name="Path 650" d="M4413.544,3259.836c.41,0,.636,0,.8-.167s.164-.388.162-.791v-.024a.547.547,0,0,0-.14-.4.563.563,0,0,0-.424-.132c-.725.009-1.141.007-1.717.005l-.634,0-1.174,0-1.261,0h-3.33v.015h-7.359c-.324,0-.519,0-.667.148s-.147.342-.146.666c0,.258,0,.429.139.562s.3.128.569.128h15.18Z" transform="translate(-53.907 -134.178)" fill="#052d49"/>
    <path id="Path_651" data-name="Path 651" d="M4393.265,3397.213c0-.195,0-.395,0-.588,0-.178,0-.362,0-.545,0-.114,0-.207,0-.29,0-.252.005-.418-.127-.552s-.311-.135-.6-.133c-.081,0-.176,0-.288,0a.522.522,0,0,0-.387.138.543.543,0,0,0-.136.4c0,.19,0,.386,0,.575,0,.076,0,.152,0,.228v.1c0,.095,0,.189,0,.284s0,.193,0,.268c0,.256-.005.426.126.559s.3.135.574.135c.076,0,.166,0,.271,0h.025a.538.538,0,0,0,.4-.144A.582.582,0,0,0,4393.265,3397.213Z" transform="translate(-48.293 -263.549)" fill="#052d49"/>
    <path id="Path_652" data-name="Path 652" d="M4444.249,3395.239c-.134-.136-.31-.135-.6-.135-.081,0-.177,0-.29,0a.51.51,0,0,0-.389.137.543.543,0,0,0-.137.4c0,.191,0,.387,0,.576,0,.076,0,.152,0,.228v.105c0,.093,0,.186,0,.278s0,.2,0,.276c0,.253,0,.421.128.554s.306.134.588.133c.08,0,.173,0,.285,0h.015a.521.521,0,0,0,.385-.139.563.563,0,0,0,.14-.415c0-.195,0-.394,0-.587s0-.382,0-.574c0-.12,0-.218,0-.3C4444.376,3395.541,4444.379,3395.372,4444.249,3395.239Z" transform="translate(-96.631 -263.547)" fill="#052d49"/>
    <path id="Path_653" data-name="Path 653" d="M4495.5,3396.07c0-.121,0-.222,0-.3,0-.23.005-.4-.124-.528s-.306-.135-.592-.134c-.078,0-.168,0-.275,0a.528.528,0,0,0-.4.139.554.554,0,0,0-.141.408c0,.194,0,.392,0,.584s0,.384,0,.576c0,.108,0,.2,0,.277,0,.264-.006.438.129.574a.615.615,0,0,0,.481.133h.126c.084,0,.184,0,.3,0h.007a.483.483,0,0,0,.357-.133.5.5,0,0,0,.132-.373c0-.186,0-.377,0-.562l0-.271c0-.039,0-.079,0-.118C4495.5,3396.25,4495.5,3396.16,4495.5,3396.07Z" transform="translate(-144.987 -263.547)" fill="#052d49"/>
    <path id="Path_654" data-name="Path 654" d="M4393.143,3471.9c-.137-.138-.309-.137-.62-.134-.078,0-.168,0-.273,0h-.024a.474.474,0,0,0-.359.126.5.5,0,0,0-.139.382c0,.187,0,.377,0,.563v.389c0,.088,0,.177,0,.265,0,.115,0,.208,0,.291,0,.245,0,.406.125.537s.3.133.575.132c.084,0,.181,0,.3,0h.018a.521.521,0,0,0,.383-.138.561.561,0,0,0,.142-.413c0-.191,0-.386,0-.575s0-.39,0-.586c0-.115,0-.21,0-.294C4393.271,3472.205,4393.275,3472.031,4393.143,3471.9Z" transform="translate(-48.298 -336.05)" fill="#052d49"/>
    <path id="Path_655" data-name="Path 655" d="M4444.257,3471.874c-.138-.14-.319-.138-.647-.134h-.276a.487.487,0,0,0-.36.135.5.5,0,0,0-.134.371c0,.179,0,.358,0,.537l0,.4c0,.094,0,.188,0,.282s0,.186,0,.259c0,.264,0,.439.13.573s.309.133.574.132c.084,0,.179,0,.294,0h.02a.516.516,0,0,0,.384-.138.555.555,0,0,0,.14-.411c0-.184,0-.373,0-.555,0-.2,0-.4,0-.607,0-.128,0-.234,0-.32C4444.384,3472.171,4444.388,3472.006,4444.257,3471.874Z" transform="translate(-96.637 -336.027)" fill="#052d49"/>
    <path id="Path_656" data-name="Path 656" d="M4495.388,3471.871c-.133-.136-.3-.136-.6-.136h-.262a.491.491,0,0,0-.548.545c0,.188,0,.382,0,.568s0,.395,0,.593c0,.118,0,.215,0,.3,0,.252-.007.419.126.552a.606.606,0,0,0,.476.131h.115c.09,0,.191,0,.315,0a.456.456,0,0,0,.5-.5c0-.186,0-.376,0-.561l0-.271c0-.042,0-.084,0-.126,0-.093,0-.188,0-.284,0-.115,0-.207,0-.289C4495.513,3472.165,4495.516,3472,4495.388,3471.871Z" transform="translate(-145 -336.022)" fill="#052d49"/>
    <path id="Path_657" data-name="Path 657" d="M4495.489,3319.527c0-.124,0-.227,0-.309,0-.223.006-.384-.122-.513s-.3-.132-.582-.13c-.083,0-.181,0-.3,0a.522.522,0,0,0-.394.136.516.516,0,0,0-.139.392c0,.206,0,.412,0,.617,0,.19,0,.381,0,.571,0,.092,0,.172,0,.241,0,.269-.006.447.132.585s.281.14.543.14H4495a.49.49,0,0,0,.363-.137.5.5,0,0,0,.131-.373c0-.186,0-.376,0-.561l0-.271c0-.039,0-.079,0-.118C4495.491,3319.707,4495.491,3319.617,4495.489,3319.527Z" transform="translate(-144.979 -191.167)" fill="#052d49"/>
    <path id="Path_658" data-name="Path 658" d="M4670.493,3374.665c.584-.007,1.179-.006,1.754,0h1.276c.471,0,.958,0,1.437,0,.106,0,.193,0,.27,0l.122,0a.516.516,0,0,0,.391-.12c.138-.134.139-.309.141-.625,0-.057,0-.122,0-.194a.579.579,0,0,0-.149-.44.609.609,0,0,0-.444-.152q-.717.006-1.435.009c-.771,0-1.567.007-2.351.019-.023,0-.042,0-.055,0s0-.036,0-.064c.011-1.022.011-2.14,0-3.417,0-.109,0-.2,0-.279.005-.249.009-.413-.121-.546s-.307-.137-.59-.136c-.075,0-.165,0-.269,0a.542.542,0,0,0-.412.139.583.583,0,0,0-.147.423c0,1.851,0,3.382,0,4.818a.511.511,0,0,0,.579.567Z" transform="translate(-311.402 -238.592)" fill="#052d49"/>
  </g>
</svg>
