<svg id="Search" xmlns="http://www.w3.org/2000/svg" width="19.113" height="19.104" viewBox="0 0 19.113 19.104">
  <path id="Path_5" data-name="Path 5" d="M-2449.072,1527.727a7.811,7.811,0,0,1,2.307-5.616,7.679,7.679,0,0,1,4.817-2.3,7.9,7.9,0,0,1,8.574,6.316,7.678,7.678,0,0,1-1.1,5.846.273.273,0,0,0,.044.419q2.022,2,4.026,4.021a1.42,1.42,0,0,1,.252,1.753,1.416,1.416,0,0,1-2.226.292q-2.046-2.024-4.07-4.071a.261.261,0,0,0-.4-.036,7.886,7.886,0,0,1-9.666-.841,7.733,7.733,0,0,1-2.539-5.581C-2449.06,1527.848-2449.069,1527.768-2449.072,1527.727Zm14.4-.019a6.445,6.445,0,0,0-6.485-6.5,6.462,6.462,0,0,0-6.468,6.434,6.462,6.462,0,0,0,6.484,6.529A6.444,6.444,0,0,0-2434.67,1527.708Z" transform="translate(2449.072 -1519.771)" fill="#434343"/>
</svg>
