<svg xmlns="http://www.w3.org/2000/svg" width="24.668" height="24.668" viewBox="0 0 24.668 24.668">
  <g id="User" transform="translate(-149.832 749.124)">
    <path id="Path_2" data-name="Path 2" d="M174.5-736.775a12.394,12.394,0,0,1-12.34,12.319,12.392,12.392,0,0,1-12.328-12.369,12.391,12.391,0,0,1,12.359-12.3A12.392,12.392,0,0,1,174.5-736.775Zm-12.312-11a10.96,10.96,0,0,0-11.005,10.933,10.959,10.959,0,0,0,10.943,11.034,10.958,10.958,0,0,0,11.024-10.952A10.959,10.959,0,0,0,162.188-747.774Z" transform="translate(0)" fill="#fff"/>
    <path id="Path_3" data-name="Path 3" d="M255.19-698.3a4.51,4.51,0,0,1,4.537,4.573,4.511,4.511,0,0,1-4.574,4.5,4.514,4.514,0,0,1-4.5-4.654A4.5,4.5,0,0,1,255.19-698.3Zm.066,1.3a3.267,3.267,0,0,0-3.3,3.234,3.236,3.236,0,0,0,3.224,3.219,3.2,3.2,0,0,0,3.234-3.166A3.249,3.249,0,0,0,255.256-696.994Z" transform="translate(-92.986 -46.875)" fill="#fff"/>
    <path id="Path_4" data-name="Path 4" d="M217.926-568.45a10.937,10.937,0,0,1,5.468,1.211,4.313,4.313,0,0,1,2.336,2.711,1.776,1.776,0,0,1,.051.305c.07.955-.07,1.082-1.033.96-.147-.019-.258-.059-.251-.226.058-1.543-.987-2.254-2.177-2.806a9.918,9.918,0,0,0-4.771-.811,9.582,9.582,0,0,0-3.821.917,5.2,5.2,0,0,0-1.035.683,2.217,2.217,0,0,0-.894,1.851c.013.31-.108.408-.407.4-1.012-.035-.939.18-.876-.954a3.336,3.336,0,0,1,1.43-2.4,8.589,8.589,0,0,1,4.046-1.672A9.43,9.43,0,0,1,217.926-568.45Z" transform="translate(-55.938 -166.624)" fill="#fff"/>
  </g>
</svg>
